<svg width="2329" height="864" viewBox="0 0 2329 864" fill="none" xmlns="http://www.w3.org/2000/svg">
<rect width="2329" height="864" rx="64" fill="url(#paint0_linear)"/>
<path d="M143.072 407.912H130.4V346.664L109.28 407.912H95.936L74.912 346.952V407.912H63.488V329.576H81.056L103.04 393.896L125.024 329.576H143.072V407.912ZM207.448 381.992H167.608C167.928 387.688 169.496 392.072 172.312 395.144C175.192 398.216 178.968 399.752 183.64 399.752C187.096 399.752 189.816 399.016 191.8 397.544C193.848 396.072 195.448 393.864 196.6 390.92L206.392 395.528C202.68 404.616 195.128 409.16 183.736 409.16C178.04 409.16 173.08 407.88 168.856 405.32C164.632 402.824 161.368 399.304 159.064 394.76C156.824 390.216 155.704 384.968 155.704 379.016C155.704 373.128 156.824 367.912 159.064 363.368C161.368 358.76 164.504 355.208 168.472 352.712C172.504 350.152 176.984 348.872 181.912 348.872C187.16 348.872 191.704 350.12 195.544 352.616C199.448 355.048 202.424 358.536 204.472 363.08C206.584 367.624 207.64 372.904 207.64 378.92C207.64 379.944 207.576 380.968 207.448 381.992ZM167.8 373.352H195.736C195.224 368.424 193.784 364.68 191.416 362.12C189.048 359.56 185.848 358.28 181.816 358.28C178.104 358.28 175 359.592 172.504 362.216C170.008 364.84 168.44 368.552 167.8 373.352ZM244.589 348.872C249.773 348.872 254.413 350.152 258.509 352.712C262.605 355.208 265.805 358.76 268.109 363.368C270.413 367.912 271.565 373.128 271.565 379.016C271.565 384.968 270.413 390.216 268.109 394.76C265.805 399.304 262.605 402.824 258.509 405.32C254.413 407.88 249.773 409.16 244.589 409.16C239.341 409.16 234.669 407.88 230.573 405.32C226.477 402.824 223.277 399.304 220.973 394.76C218.669 390.216 217.517 384.968 217.517 379.016C217.517 373.128 218.669 367.912 220.973 363.368C223.277 358.76 226.477 355.208 230.573 352.712C234.669 350.152 239.341 348.872 244.589 348.872ZM244.589 358.28C241.581 358.28 238.925 359.144 236.621 360.872C234.317 362.6 232.525 365.032 231.245 368.168C229.965 371.304 229.325 374.92 229.325 379.016C229.325 383.112 229.965 386.728 231.245 389.864C232.525 393 234.317 395.432 236.621 397.16C238.925 398.888 241.581 399.752 244.589 399.752C247.597 399.752 250.221 398.888 252.461 397.16C254.765 395.432 256.557 393 257.837 389.864C259.117 386.728 259.757 383.112 259.757 379.016C259.757 374.92 259.117 371.304 257.837 368.168C256.557 365.032 254.765 362.6 252.461 360.872C250.221 359.144 247.597 358.28 244.589 358.28ZM363.853 350.12L348.013 407.912H334.573L321.901 360.968L309.133 407.912H295.693L279.949 350.12H291.949L302.605 396.968L315.373 350.12H329.005L341.773 396.968L352.429 350.12H363.853ZM420.653 397.256V407.912H374.957V329.576H387.533V397.256H420.653ZM472.295 407.912C471.975 406.184 471.783 403.048 471.719 398.504C467.431 405.608 460.679 409.16 451.463 409.16C445.319 409.16 440.487 407.304 436.967 403.592C433.447 399.944 431.687 394.856 431.687 388.328V350.12H443.495V386.408C443.495 394.984 447.527 399.272 455.591 399.272C460.135 399.272 463.751 397.736 466.439 394.664C469.191 391.528 470.567 387.336 470.567 382.088V350.12H482.279V394.568C482.279 400.392 482.407 404.84 482.663 407.912H472.295ZM525.22 350.408C525.22 346.056 526.244 342.216 528.292 338.888C530.404 335.56 533.444 332.968 537.412 331.112C541.38 329.256 546.02 328.328 551.332 328.328C557.988 328.328 563.524 329.704 567.94 332.456C572.356 335.208 575.396 339.144 577.06 344.264L566.884 349.064C565.668 345.8 563.844 343.336 561.412 341.672C558.98 340.008 555.716 339.176 551.62 339.176C547.076 339.176 543.652 340.104 541.348 341.96C539.044 343.816 537.892 346.472 537.892 349.928C537.892 352.168 538.372 354.024 539.332 355.496C540.356 356.904 541.988 358.12 544.228 359.144C546.468 360.104 549.572 360.968 553.54 361.736C562.372 363.4 568.74 366.152 572.644 369.992C576.548 373.832 578.5 379.112 578.5 385.832C578.5 390.312 577.316 394.344 574.948 397.928C572.644 401.448 569.38 404.2 565.156 406.184C560.932 408.168 556.132 409.16 550.756 409.16C543.396 409.16 537.252 407.624 532.324 404.552C527.396 401.48 524.068 397.096 522.34 391.4L532.612 386.6C533.828 390.44 535.972 393.352 539.044 395.336C542.116 397.32 545.988 398.312 550.66 398.312C555.524 398.312 559.268 397.256 561.892 395.144C564.516 393.032 565.828 390.024 565.828 386.12C565.828 382.536 564.516 379.72 561.892 377.672C559.332 375.56 554.852 373.864 548.452 372.584C540.452 371.048 534.564 368.488 530.788 364.904C527.076 361.256 525.22 356.424 525.22 350.408ZM605.049 359.528V391.496C605.049 396.68 607.609 399.272 612.729 399.272C615.033 399.272 616.953 399.016 618.489 398.504V407.816C615.929 408.712 613.177 409.16 610.233 409.16C604.985 409.16 600.825 407.624 597.753 404.552C594.745 401.544 593.241 397.384 593.241 392.072V359.528H584.889V350.12H593.241V336.104H605.049V350.12H618.489V359.528H605.049ZM654.682 348.872C659.866 348.872 664.506 350.152 668.602 352.712C672.698 355.208 675.898 358.76 678.202 363.368C680.506 367.912 681.658 373.128 681.658 379.016C681.658 384.968 680.506 390.216 678.202 394.76C675.898 399.304 672.698 402.824 668.602 405.32C664.506 407.88 659.866 409.16 654.682 409.16C649.434 409.16 644.762 407.88 640.666 405.32C636.57 402.824 633.37 399.304 631.066 394.76C628.762 390.216 627.61 384.968 627.61 379.016C627.61 373.128 628.762 367.912 631.066 363.368C633.37 358.76 636.57 355.208 640.666 352.712C644.762 350.152 649.434 348.872 654.682 348.872ZM654.682 358.28C651.674 358.28 649.018 359.144 646.714 360.872C644.41 362.6 642.618 365.032 641.338 368.168C640.058 371.304 639.418 374.92 639.418 379.016C639.418 383.112 640.058 386.728 641.338 389.864C642.618 393 644.41 395.432 646.714 397.16C649.018 398.888 651.674 399.752 654.682 399.752C657.69 399.752 660.314 398.888 662.554 397.16C664.858 395.432 666.65 393 667.93 389.864C669.21 386.728 669.85 383.112 669.85 379.016C669.85 374.92 669.21 371.304 667.93 368.168C666.65 365.032 664.858 362.6 662.554 360.872C660.314 359.144 657.69 358.28 654.682 358.28ZM718.459 348.872C724.283 348.872 729.019 350.12 732.667 352.616C736.379 355.112 738.779 358.344 739.867 362.312L729.883 367.016C728.411 361.512 724.667 358.76 718.651 358.76C714.043 358.76 710.331 360.584 707.515 364.232C704.763 367.88 703.387 372.808 703.387 379.016C703.387 385.16 704.763 390.088 707.515 393.8C710.331 397.448 714.043 399.272 718.651 399.272C724.667 399.272 728.411 396.552 729.883 391.112L739.867 395.72C738.779 399.688 736.379 402.92 732.667 405.416C729.019 407.912 724.283 409.16 718.459 409.16C713.275 409.16 708.635 407.88 704.539 405.32C700.507 402.824 697.339 399.304 695.035 394.76C692.731 390.216 691.579 384.968 691.579 379.016C691.579 373.128 692.731 367.912 695.035 363.368C697.339 358.76 700.507 355.208 704.539 352.712C708.635 350.152 713.275 348.872 718.459 348.872ZM785.186 407.912L762.722 379.4V407.912H750.914V326.216H762.722V375.656L783.938 350.12H798.242L774.722 377.576L800.258 407.912H785.186ZM96.608 482.112C98.336 480.832 99.808 479.52 101.024 478.176C102.304 476.832 103.2 475.488 103.712 474.144C104.608 471.776 105.056 468.768 105.056 465.12V453.888H137.312V470.4C137.312 472.448 137.504 473.76 137.888 474.336C138.272 474.912 139.072 475.232 140.288 475.296C141.504 475.36 142.656 475.36 143.744 475.296C144.896 475.168 146.112 475.04 147.392 474.912L145.568 484.896C144.48 485.024 143.136 485.056 141.536 484.992C139.936 484.928 138.112 484.832 136.064 484.704C132.48 484.448 130.016 483.456 128.672 481.728C127.392 480 126.752 477.12 126.752 473.088V463.776H115.04V468.48C115.04 472.896 114.304 476.512 112.832 479.328C111.36 482.208 108.672 485.216 104.768 488.352H142.016L141.92 498.528C140.448 502.688 138.624 506.656 136.448 510.432C134.336 514.208 131.808 517.824 128.864 521.28C131.488 523.008 134.464 524.672 137.792 526.272C141.12 527.872 144.832 529.408 148.928 530.88L143.456 540.96C139.04 539.04 135.008 537.024 131.36 534.912C127.712 532.864 124.352 530.656 121.28 528.288C115.84 532.64 108.672 536.832 99.776 540.864L94.976 532.8C93.76 535.872 91.232 537.632 87.392 538.08C86.112 538.272 84.736 538.4 83.264 538.464C81.792 538.528 80.032 538.592 77.984 538.656L76.064 527.616C77.088 527.744 78.304 527.84 79.712 527.904C81.12 527.904 82.176 527.904 82.88 527.904C84.416 527.904 85.376 527.648 85.76 527.136C86.144 526.624 86.336 525.408 86.336 523.488V508.8H76.256C75.936 515.072 75.232 520.288 74.144 524.448C73.44 527.072 72.576 529.6 71.552 532.032C70.528 534.528 69.248 537.152 67.712 539.904L58.4 535.2C61.792 529.248 64.032 523.52 65.12 518.016C66.208 512.384 66.752 502.752 66.752 489.12V453.696H96.032V526.464C96.032 527.744 95.936 528.896 95.744 529.92C99.328 528.512 102.56 527.072 105.44 525.6C108.32 524.064 110.912 522.528 113.216 520.992C110.528 517.984 108.128 514.592 106.016 510.816C103.968 507.04 102.144 502.944 100.544 498.528H98.912V488.352H104.48L96.608 482.112ZM111.296 498.528C113.664 504.8 116.832 510.112 120.8 514.464C123.104 512.032 125.056 509.504 126.656 506.88C128.32 504.192 129.696 501.408 130.784 498.528H111.296ZM76.352 476.544H86.336V463.392H76.352V476.544ZM76.352 498.816H86.336V486.24H76.352V498.816ZM184.948 466.56V461.856H160.66V453.312H240.148V461.856H216.052V466.56H237.46V489.408H163.444V466.56H184.948ZM157.3 528.96C161.46 527.296 165.556 525.472 169.588 523.488C173.684 521.44 177.78 519.072 181.876 516.384H158.836V507.552H242.068V516.384H218.356C220.02 516.96 221.876 517.728 223.924 518.688C226.036 519.584 228.372 520.672 230.932 521.952C236.244 524.512 240.436 526.752 243.508 528.672L238.42 537.408C236.372 536.128 234.452 534.976 232.66 533.952C230.868 532.992 228.66 531.808 226.036 530.4C220.852 527.84 216.628 525.92 213.364 524.64L217.78 516.384H206.164V525.984C206.164 528.16 206.004 529.952 205.684 531.36C205.364 532.768 204.82 533.92 204.052 534.816C203.284 535.712 202.26 536.352 200.98 536.736C199.764 537.184 198.228 537.504 196.372 537.696C194.516 537.888 192.724 538.016 190.996 538.08C189.332 538.144 187.572 538.144 185.716 538.08L183.892 528.672C185.364 528.8 186.676 528.864 187.828 528.864C188.98 528.928 190.26 528.96 191.668 528.96C192.692 528.96 193.492 528.928 194.068 528.864C194.644 528.8 195.06 528.64 195.316 528.384C195.636 528.128 195.828 527.744 195.892 527.232C196.02 526.656 196.084 525.92 196.084 525.024V516.384H182.932L188.308 524.064C184.596 526.496 180.532 528.864 176.116 531.168C171.764 533.472 166.964 535.744 161.716 537.984L157.3 528.96ZM234.58 494.112V502.944H166.324V494.112H234.58ZM173.62 481.152H184.948V475.008H173.62V481.152ZM216.052 475.008V481.152H227.284V475.008H216.052ZM194.932 481.152H206.164V475.008H194.932V481.152ZM194.932 466.56H206.164V461.856H194.932V466.56ZM328.296 451.392C329 451.968 329.8 452.672 330.696 453.504C331.592 454.336 332.584 455.296 333.672 456.384C334.76 457.472 335.72 458.464 336.552 459.36C337.384 460.256 338.088 461.056 338.664 461.76L333 467.52H339.144V477.504H323.112C323.496 489.216 324.168 498.528 325.128 505.44C326.152 513.248 327.464 519.296 329.064 523.584C329.512 524.928 329.896 525.824 330.216 526.272C330.6 526.72 330.952 526.944 331.272 526.944C331.464 526.944 331.656 526.688 331.848 526.176C332.104 525.6 332.392 524.448 332.712 522.72L334.536 514.656L342.504 517.92C342.312 518.944 342.088 520.064 341.832 521.28C341.64 522.432 341.416 523.616 341.16 524.832C340.968 525.984 340.744 527.072 340.488 528.096C340.232 529.184 339.976 530.112 339.72 530.88C339.08 532.8 338.408 534.368 337.704 535.584C337.064 536.8 336.392 537.728 335.688 538.368C334.984 539.072 334.248 539.52 333.48 539.712C332.712 539.968 331.944 540.096 331.176 540.096C329.448 540.096 327.688 539.328 325.896 537.792C324.104 536.256 322.408 533.632 320.808 529.92C318.952 525.632 317.352 519.072 316.008 510.24C314.664 501.408 313.736 490.496 313.224 477.504H289.32V467.52H312.936C312.808 464.448 312.712 461.472 312.648 458.592C312.648 455.712 312.616 452.896 312.552 450.144H322.728C322.664 452.448 322.632 455.072 322.632 458.016C322.632 460.896 322.696 464.064 322.824 467.52H332.328C331.752 466.816 331.08 466.048 330.312 465.216C329.544 464.32 328.712 463.36 327.816 462.336C326.792 461.248 325.864 460.288 325.032 459.456C324.2 458.56 323.432 457.792 322.728 457.152L328.296 451.392ZM285.576 503.808V534.816H257.64V503.808H285.576ZM286.344 522.432C287.752 522.304 289.32 522.112 291.048 521.856C292.84 521.6 294.76 521.28 296.808 520.896V497.952H289.512V487.488H312.456V497.952H306.312V519.168C307.976 518.784 309.544 518.432 311.016 518.112C312.488 517.728 313.832 517.376 315.048 517.056L315.72 522.24L316.2 527.616C314.472 528 312.424 528.416 310.056 528.864C307.752 529.312 305.128 529.792 302.184 530.304C299.24 530.816 296.616 531.232 294.312 531.552C292.008 531.872 289.96 532.16 288.168 532.416L286.344 522.432ZM275.016 450.432C275.272 451.328 275.496 452.352 275.688 453.504C275.944 454.592 276.232 455.872 276.552 457.344L277.32 461.952H288.36V471.072H253.896V461.952H267.432C267.368 461.376 267.272 460.768 267.144 460.128C267.08 459.424 266.984 458.688 266.856 457.92C266.344 454.976 265.864 452.704 265.416 451.104L275.016 450.432ZM284.808 489.696V498.816H258.504V489.696H284.808ZM284.808 476.064V484.896H258.504V476.064H284.808ZM266.376 525.792H276.648V512.928H266.376V525.792ZM349.916 469.824C351.644 468.16 353.34 466.368 355.004 464.448C356.732 462.464 358.332 460.512 359.804 458.592C361.276 456.608 362.588 454.72 363.74 452.928C364.956 451.072 365.948 449.44 366.716 448.032L376.892 450.72C376.444 451.552 376.028 452.352 375.644 453.12C375.26 453.888 374.812 454.656 374.3 455.424H394.556V461.376C395.9 459.392 397.244 457.28 398.588 455.04C399.932 452.8 401.148 450.56 402.236 448.32L412.124 451.008L409.916 455.424H436.028V463.968H419.708L422.492 468.096L415.964 471.936H426.812V510.912H416.06V517.056H436.7V525.792H416.06V539.712H405.98V525.792H380.828C379.42 529.248 377.116 532.128 373.916 534.432C370.78 536.8 366.812 538.944 362.012 540.864L355.772 533.088C359.1 531.808 361.788 530.56 363.836 529.344C365.948 528.128 367.644 526.944 368.924 525.792H350.204V517.056H372.188V510.912H360.284V473.28L357.596 475.872L349.916 469.824ZM370.46 483.072H416.636V478.944H370.46V483.072ZM416.636 503.52V499.488H370.46V503.52H416.636ZM370.46 493.248H416.636V489.216H370.46V493.248ZM382.268 517.056H405.98V510.912H382.268V517.056ZM389.756 467.52C390.204 467.008 390.652 466.464 391.1 465.888C391.612 465.312 392.124 464.672 392.636 463.968H380.636L383.42 468.48L375.932 471.936H398.3L389.756 467.52ZM414.908 471.936C414.268 470.848 413.468 469.6 412.508 468.192C411.612 466.72 410.716 465.312 409.82 463.968H404.732C403.772 465.44 402.78 466.848 401.756 468.192C400.732 469.536 399.676 470.784 398.588 471.936H414.908ZM375.644 471.936C375.452 471.488 375.164 470.944 374.78 470.304C374.46 469.6 374.076 468.896 373.628 468.192C373.18 467.424 372.732 466.688 372.284 465.984C371.836 465.216 371.42 464.544 371.036 463.968H368.444C366.332 466.72 364.06 469.376 361.628 471.936H375.644ZM468.784 526.56C471.024 526.752 473.008 526.88 474.736 526.944C476.464 527.008 478.096 527.04 479.632 527.04C480.72 527.04 481.584 527.008 482.224 526.944C482.928 526.816 483.44 526.592 483.76 526.272C484.144 525.888 484.4 525.344 484.528 524.64C484.72 523.936 484.816 522.944 484.816 521.664V450.624H496.048V523.2C495.984 525.824 495.792 528 495.472 529.728C495.152 531.52 494.576 532.992 493.744 534.144C492.976 535.296 491.92 536.192 490.576 536.832C489.232 537.472 487.536 537.952 485.488 538.272C483.056 538.656 480.56 538.88 478 538.944C475.504 539.008 473.04 538.944 470.608 538.752L468.784 526.56ZM513.136 466.752C514.992 469.696 516.976 473.312 519.088 477.6C521.264 481.888 523.536 486.752 525.904 492.192C528.272 497.632 530.288 502.656 531.952 507.264C533.616 511.808 534.928 515.808 535.888 519.264L524.752 523.776C523.792 520.32 522.48 516.384 520.816 511.968C519.216 507.488 517.296 502.464 515.056 496.896C510.512 485.76 506.544 477.28 503.152 471.456L513.136 466.752ZM444.496 517.536C446.48 513.76 448.368 509.728 450.16 505.44C452.016 501.088 453.712 496.736 455.248 492.384C456.784 487.968 458.16 483.648 459.376 479.424C460.592 475.2 461.584 471.296 462.352 467.712L473.872 470.4C472.72 474.88 471.44 479.456 470.032 484.128C468.624 488.8 467.12 493.408 465.52 497.952C463.984 502.432 462.288 506.784 460.432 511.008C458.64 515.232 456.752 519.104 454.768 522.624L444.496 517.536ZM623.364 456.096V467.52H592.548V522.624H629.028V533.856H544.164V522.624H580.548V467.52H549.924V456.096H623.364ZM639.608 531.36C641.592 530.72 643.992 529.856 646.808 528.768C649.624 527.68 652.632 526.304 655.832 524.64C658.008 523.552 660.024 522.496 661.88 521.472C663.736 520.384 665.464 519.36 667.064 518.4H639.704V508.8H652.184V453.216H713.816V508.8H726.2V518.4H698.648C700.248 518.976 701.944 519.648 703.736 520.416C705.528 521.12 707.448 521.92 709.496 522.816C716.024 525.632 721.112 528.128 724.76 530.304L719.96 540.288C718.104 539.008 715.96 537.696 713.528 536.352C711.096 535.008 708.248 533.6 704.984 532.128C701.72 530.656 698.744 529.408 696.056 528.384C693.368 527.36 691.032 526.528 689.048 525.888L692.408 518.4H672.44L676.376 524.736C674.456 526.016 672.152 527.392 669.464 528.864C666.84 530.336 663.864 531.936 660.536 533.664C657.208 535.392 654.2 536.832 651.512 537.984C648.824 539.2 646.456 540.16 644.408 540.864L639.608 531.36ZM662.936 508.8H702.872V503.328H662.936V508.8ZM662.936 480.96H702.872V475.68H662.936V480.96ZM662.936 467.328H702.872V462.144H662.936V467.328ZM662.936 494.496H702.872V489.312H662.936V494.496Z" fill="black"/>
<defs>
<linearGradient id="paint0_linear" x1="0" y1="0" x2="1804" y2="864" gradientUnits="userSpaceOnUse">
<stop stop-color="#FFECD2"/>
<stop offset="1" stop-color="#FCB69F"/>
</linearGradient>
</defs>
</svg>
